:FULLY-SPECIFIED
:FORCE-ALL-JOINTS-BE-3DOF
:DEGREES
34
root 5.98394 16.8999 -28.0766 10.0029 -1.90615 -2.27125
lfemur -20.1023 1.67201 -19.7778
ltibia 33.7617 0 0
lfoot -36.0546 4.27353 0
ltoes 36.2325 0 0
rfemur -16.8052 7.44754 19.5678
rtibia 30.5332 0 0
rfoot -27.4731 -19.1657 0
rtoes 15.0838 0 0
lowerback -5.48452 2.57423 -0.988734
upperback -1.9212 3.47032 0.845039
thorax 0.982589 1.73993 1.63365
lowerneck -9.54487 -1.65261 2.66147
upperneck -2.58112 -2.46814 0.749079
head 0.759896 -1.23662 -0.295566
lclavicle -3.82032e-014 -8.87698e-015 0
lhumerus -41.5377 -12.7814 97.1193
lradius 38.8249 0 0
lwrist 5.69982 0 0
lhand -11.2236 6.07354 0
lfingers 7.12502 0 0
lthumb 14.805 35.5247 0
rclavicle -3.82032e-014 -8.87698e-015 0
rhumerus -40.6511 -5.05046 -88.6507
rradius 39.1449 0 0
rwrist 11.1 0 0
rhand -26.8184 -19.9103 0
rfingers 7.12502 0 0
rthumb -0.244672 -49.8899 0
35
root 5.97701 16.8993 -28.0778 10.0324 -1.84945 -2.23655
lfemur -20.1618 1.65555 -19.7851
ltibia 33.7988 -0 0
lfoot -35.959 4.22252 -0.000425478
ltoes 36.1566 -0 0
rfemur -16.825 7.25809 19.5535
rtibia 30.5172 -0 0
rfoot -27.4616 -19.0835 8.24749e-005
rtoes 14.5273 -0 0
lowerback -5.51589 2.53807 -0.889123
upperback -1.90334 3.41826 0.7583
thorax 1.02993 1.7128 1.48801
lowerneck -9.54419 -1.64009 2.6916
upperneck -2.62844 -2.45423 0.810061
head 0.745207 -1.22953 -0.280851
lclavicle 1.35298e-014 -9.34288e-015 0
lhumerus -41.5269 -12.8284 97.0316
lradius 39.0072 -0 0
lwrist 5.80699 0 0
lhand -11.2681 5.81633 0.000998662
lfingers 7.12502 -0 0
lthumb 14.7621 35.2706 0.00095056
rclavicle 1.35298e-014 -9.34288e-015 0
rhumerus -40.6078 -5.02938 -88.7963
rradius 39.1439 -0 0
rwrist 11.0374 0 0
rhand -26.7965 -19.9778 -0.000129235
rfingers 7.12502 -0 0
rthumb -0.223478 -49.9574 -0.000124829
36
root 5.97008 16.8988 -28.0789 10.0619 -1.79277 -2.20182
lfemur -20.2212 1.63909 -19.7923
ltibia 33.8359 -0 0
lfoot -35.8635 4.1715 -0.000765861
ltoes 36.0806 -0 0
rfemur -16.8448 7.06864 19.5393
rtibia 30.5012 -0 0
rfoot -27.4501 -19.0013 0.000148455
rtoes 13.9708 -0 0
lowerback -5.54733 2.50197 -0.789494
upperback -1.8854 3.36622 0.671549
thorax 1.07734 1.68578 1.34235
lowerneck -9.5435 -1.62757 2.72172
upperneck -2.67575 -2.44028 0.871031
head 0.73052 -1.22244 -0.266138
lclavicle 1.35298e-014 -9.34288e-015 0
lhumerus -41.516 -12.8753 96.9439
lradius 39.1894 -0 0
lwrist 5.91416 0 0
lhand -11.3126 5.55912 0.00179762
lfingers 7.12502 -0 0
lthumb 14.7193 35.0165 0.00171103
rclavicle 1.35298e-014 -9.34288e-015 0
rhumerus -40.5645 -5.00818 -88.9419
rradius 39.1429 -0 0
rwrist 10.9747 0 0
rhand -26.7745 -20.0453 -0.000232623
rfingers 7.12502 -0 0
rthumb -0.202284 -50.0249 -0.000224692
37
root 5.96315 16.8982 -28.0801 10.0915 -1.7361 -2.16706
lfemur -20.2807 1.62261 -19.7995
ltibia 33.873 -0 0
lfoot -35.7679 4.12049 -0.00102115
ltoes 36.0047 -0 0
rfemur -16.8645 6.87918 19.5252
rtibia 30.4852 -0 0
rfoot -27.4386 -18.9192 0.00019794
rtoes 13.4143 -0 0
lowerback -5.57883 2.46592 -0.689848
upperback -1.86738 3.31421 0.584786
thorax 1.12482 1.65889 1.19667
lowerneck -9.54281 -1.61505 2.75185
upperneck -2.72304 -2.42627 0.931989
head 0.715834 -1.21534 -0.251427
lclavicle 1.35298e-014 -9.34288e-015 0
lhumerus -41.5051 -12.9222 96.8562
lradius 39.3717 -0 0
lwrist 6.02134 0 0
lhand -11.3571 5.3019 0.00239685
lfingers 7.12502 -0 0
lthumb 14.6764 34.7623 0.0022814
rclavicle 1.35298e-014 -9.34288e-015 0
rhumerus -40.5213 -4.98688 -89.0875
rradius 39.1419 -0 0
rwrist 10.9121 0 0
rhand -26.7526 -20.1127 -0.000310164
rfingers 7.12502 -0 0
rthumb -0.181089 -50.0924 -0.000299589
38
root 5.95622 16.8976 -28.0813 10.121 -1.67945 -2.13228
lfemur -20.3401 1.60613 -19.8067
ltibia 33.9101 -0 0
lfoot -35.6723 4.06947 -0.00119134
ltoes 35.9288 -0 0
rfemur -16.8841 6.68972 19.5111
rtibia 30.4692 -0 0
rfoot -27.4271 -18.837 0.00023093
rtoes 12.8579 -0 0
lowerback -5.61039 2.42992 -0.590186
upperback -1.84929 3.26223 0.498011
thorax 1.17237 1.63212 1.05096
lowerneck -9.54211 -1.60253 2.78198
upperneck -2.77031 -2.41221 0.992935
head 0.701151 -1.20824 -0.236718
lclavicle 1.35298e-014 -9.34288e-015 0
lhumerus -41.494 -12.9691 96.7684
lradius 39.554 -0 0
lwrist 6.12851 0 0
lhand -11.4016 5.04469 0.00279634
lfingers 7.12502 -0 0
lthumb 14.6336 34.5082 0.00266165
rclavicle 1.35298e-014 -9.34288e-015 0
rhumerus -40.4781 -4.96547 -89.233
rradius 39.1409 -0 0
rwrist 10.8494 0 0
rhand -26.7306 -20.1802 -0.000361858
rfingers 7.12502 -0 0
rthumb -0.159895 -50.1599 -0.000349521
